<svg xmlns="http://www.w3.org/2000/svg" viewBox="0 0 16 16" fill="none" shape-rendering="crispEdges" aria-hidden="true"><!-- Generated by DiceBear (https://www.dicebear.com) --><metadata xmlns:rdf="http://www.w3.org/1999/02/22-rdf-syntax-ns#" xmlns:xsi="http://www.w3.org/2001/XMLSchema-instance" xmlns:dc="http://purl.org/dc/elements/1.1/" xmlns:dcterms="http://purl.org/dc/terms/"><rdf:RDF><rdf:Description><dc:title>Pixel Art</dc:title><dc:creator>DiceBear</dc:creator><dc:source xsi:type="dcterms:URI">https://www.figma.com/community/file/1198754108850888330</dc:source><dcterms:license xsi:type="dcterms:URI">https://creativecommons.org/publicdomain/zero/1.0/</dcterms:license><dc:rights>“Pixel Art” (https://www.figma.com/community/file/1198754108850888330) by “DiceBear”, licensed under “CC0 1.0” (https://creativecommons.org/publicdomain/zero/1.0/)</dc:rights></rdf:Description></rdf:RDF></metadata><defs><g id="clothes-variant17-0adf0e42"><path d="M2 1h2v1h1v1h2V2h1V1h2v1h1v2H1V2h1z" fill="#5bc0de"/></g><g id="eyes-variant01-0adf0e42"><path fill="white" d="M8 0H5v3h3zM3 0H0v3h3z"/><path transform="matrix(-1 0 0 1 8 1)" fill="#76778b" d="M0 0h2v1H0z"/><path transform="matrix(-1 0 0 1 3 1)" fill="#76778b" d="M0 0h2v1H0z"/><path fill="white" fill-opacity=".7" d="M8 1H7v1h1zM3 1H2v1h1z"/></g><g id="mouth-happy07-0adf0e42"><path d="M4 2V1H1V0H0v1h1v1z" fill="#d29985"/></g><g id="hair-long17-0adf0e42"><path d="M5 1h7v1h1v1h1v3h-1V4h-2V3H5v1H4v1H3v1H2v2h1v3h1v1H1V4h1V3h1V2h2z" fill="#cab188"/></g><clipPath id="clip-0adf0e42"><rect width="16" height="16" rx="0" ry="0"/></clipPath></defs><g clip-path="url(#clip-0adf0e42)"><rect width="16" height="16" fill="#b6e3f4"/><path d="M4 2h8v1h1v3h1v2h-1v3h-1v1H9v1h4v1h1v2H2v-2h1v-1h4v-1H4v-1H3V8H2V6h1V3h1z" fill="#eac393"/><path d="M4 2h8v1h1v3h1v2h-1v3h-1v1H4v-1H3V8H2V6h1V3h1z" fill="white" fill-opacity=".1"/><use transform="translate(2 12)" href="#clothes-variant17-0adf0e42"/><use transform="translate(4 5)" href="#eyes-variant01-0adf0e42"/><use transform="translate(6 9)" href="#mouth-happy07-0adf0e42"/><use href="#hair-long17-0adf0e42"/></g></svg>
